<svg xmlns="http://www.w3.org/2000/svg" viewBox="0 0 230.03 51.72"><defs><style>.cls-1,.cls-2{fill:none;stroke-miterlimit:10;stroke-width:2px;}.cls-1{stroke:#489d84;}.cls-2{stroke:#595757;}.cls-3{fill:#231815;}</style></defs><title>logo</title><g id="レイヤー_2" data-name="レイヤー 2"><g id="レイヤー_1-2" data-name="レイヤー 1"><polygon class="cls-1" points="53 50.22 28 39.88 28 11.86 53 22.21 53 50.22"/><polygon class="cls-1" points="53 50.22 78 39.88 78 11.86 53 22.21 53 50.22"/><polyline class="cls-1" points="28.16 11.58 53.52 1.09 78 11.86"/><line class="cls-1" x1="41" y1="16.5" x2="41" y2="31.5"/><line class="cls-1" x1="40.84" y1="16.83" x2="53.52" y2="11.58"/><line class="cls-1" x1="61.39" y1="27.76" x2="71.89" y2="23.94"/><line class="cls-1" x1="61.39" y1="35.64" x2="71.89" y2="31.81"/><line class="cls-2" x1="20" y1="14.5" x2="11" y2="14.5"/><line class="cls-2" x1="20" y1="23.5" x2="5" y2="23.5"/><line class="cls-2" x1="20" y1="33.5" y2="33.5"/><path class="cls-3" d="M103,20H96.56l-.67,5.52h6.22l-.22,2H95.66l-1.15,9.24H92.44L94.74,18h8.51Z"/><path class="cls-3" d="M114.48,25.05h2l-1.43,11.62h-2l.2-1.62a4.89,4.89,0,0,1-1.46,1.37,5.52,5.52,0,0,1-6.19-.84,5.79,5.79,0,0,1-1.51-4.14,7,7,0,0,1,2-5.15,5.72,5.72,0,0,1,4.17-1.51,5.08,5.08,0,0,1,2.46.56,3.9,3.9,0,0,1,1.54,1.37Zm-6.83,2.6a5.15,5.15,0,0,0-1.48,3.64,4.22,4.22,0,0,0,1.2,3.05,3.25,3.25,0,0,0,2.35.87,3.75,3.75,0,0,0,2.88-1.15,5.64,5.64,0,0,0,1.32-3.78,3.7,3.7,0,0,0-1.09-2.8,3.36,3.36,0,0,0-2.38-.92A4,4,0,0,0,107.64,27.66Z"/><path class="cls-3" d="M124.7,27.74a1.88,1.88,0,0,0-.48-.78,1.29,1.29,0,0,0-1-.39,1.64,1.64,0,0,0-1.12.36,1.36,1.36,0,0,0-.45,1,1.1,1.1,0,0,0,.34.81,4.13,4.13,0,0,0,1.15.67l1.06.53a6.74,6.74,0,0,1,1.48,1,2.93,2.93,0,0,1,.76,2.07,4,4,0,0,1-1,2.69A4.41,4.41,0,0,1,122.12,37a3.55,3.55,0,0,1-2.44-.76A4.33,4.33,0,0,1,118.31,34l1.76-.73a3.56,3.56,0,0,0,.7,1.37,1.88,1.88,0,0,0,1.4.53,2.28,2.28,0,0,0,1.57-.5,2,2,0,0,0,.59-1.48,1.47,1.47,0,0,0-.62-1.2,8.67,8.67,0,0,0-1.2-.7l-.64-.31A5.24,5.24,0,0,1,120.33,30a2.6,2.6,0,0,1-.64-1.82,3.29,3.29,0,0,1,1-2.38,3.47,3.47,0,0,1,2.63-1,3.12,3.12,0,0,1,2.1.7,3.74,3.74,0,0,1,1.06,1.4Z"/><path class="cls-3" d="M131.95,26.9l-1.2,9.77h-2l1.2-9.77H128.7l.22-1.85h1.23l.5-4.2h2l-.5,4.2h2L134,26.9Z"/><path class="cls-3" d="M144,18h3.39c2.1,0,5.07.31,7.2,2.32a8,8,0,0,1,2.27,6,10.59,10.59,0,0,1-2.72,7.45c-2.3,2.35-5.26,2.86-8.82,2.86h-3.61Zm0,16.72h1.37c3.05,0,5.4-.5,7.11-2.21a8.46,8.46,0,0,0,2.16-6A6.4,6.4,0,0,0,153,21.89,7.16,7.16,0,0,0,147.63,20h-1.82Z"/><path class="cls-3" d="M169.86,33.7a8.16,8.16,0,0,1-2.16,2.41,6,6,0,0,1-3.36.9,4.88,4.88,0,0,1-3.84-1.46A5.76,5.76,0,0,1,159,31.38a7,7,0,0,1,2-5A5.36,5.36,0,0,1,165,24.77a5.08,5.08,0,0,1,3.78,1.37c.84.87,1.62,2.46,1.32,5.12h-9a4,4,0,0,0,1,3.08,3,3,0,0,0,2.3.87,3.78,3.78,0,0,0,2.24-.64,5.8,5.8,0,0,0,1.51-1.79Zm-1.68-4.12a3.44,3.44,0,0,0-1-2.3,3,3,0,0,0-2.13-.73,3.35,3.35,0,0,0-2.55,1,4.4,4.4,0,0,0-1.12,2Z"/><path class="cls-3" d="M177.05,16.26l-2.52,20.41h-2L175,16.26Z"/><path class="cls-3" d="M181.79,25.05l-1.43,11.62h-2l1.43-11.62Zm-1.51-5.29a1.53,1.53,0,0,1,1.2-.53,1.18,1.18,0,0,1,.9.34,1.24,1.24,0,0,1,.36.92,1.53,1.53,0,0,1-.45,1.12,1.5,1.5,0,0,1-1.12.48,1.27,1.27,0,0,1-1-.39,1.21,1.21,0,0,1-.34-.87A1.64,1.64,0,0,1,180.27,19.76Z"/><path class="cls-3" d="M186.1,25.05l2.52,7.84L193,25.05h2.3l-7.22,12.38-4.2-12.38Z"/><path class="cls-3" d="M206.9,33.7a8.16,8.16,0,0,1-2.16,2.41,6,6,0,0,1-3.36.9,4.88,4.88,0,0,1-3.84-1.46A5.76,5.76,0,0,1,196,31.38a7,7,0,0,1,2-5,5.36,5.36,0,0,1,4.06-1.62,5.08,5.08,0,0,1,3.78,1.37c.84.87,1.62,2.46,1.32,5.12h-9a4,4,0,0,0,1,3.08,3,3,0,0,0,2.3.87,3.78,3.78,0,0,0,2.24-.64,5.8,5.8,0,0,0,1.51-1.79Zm-1.68-4.12a3.44,3.44,0,0,0-1-2.3,3,3,0,0,0-2.13-.73,3.35,3.35,0,0,0-2.55,1,4.4,4.4,0,0,0-1.12,2Z"/><path class="cls-3" d="M211,25.05h2l-.17,1.26a3.29,3.29,0,0,1,2.86-1.54,3,3,0,0,1,1.71.48l-1.18,1.82a1.89,1.89,0,0,0-1.2-.39,2.09,2.09,0,0,0-1.54.62,5.38,5.38,0,0,0-1.15,3.25l-.76,6.13h-2Z"/><path class="cls-3" d="M221.66,35.58,217.6,25.05h2.24l3.08,8.32,4.82-8.32H230L219.28,43.11H217Z"/></g></g></svg>